<svg xmlns="http://www.w3.org/2000/svg" viewBox="0 0 1000 792.1" width="1000" height="792.1" fill="#ffffff">
<g>
<path d="M838.5,685.6c9.8-16.9,40.9-138.1,47.4-164.7c14.2-57.8,30-112.2,43.2-170.4c4.4-19.2,69.2-265.9,70.8-335.1
		c0.6-26.8-10-13.5-17.2,1.5c-13.9,28.7-38.4,128.8-47.5,162.9c-9.1,34-14.9,66.3-23.4,99.2c-5.5,21.2-66.8,141.1-79.7,162.4
		l-66.3,116c-7.5,12.4-13.8,25.1-22.4,37.5c-7.1,10.2-16,24.8-23.5,36.3c-11,16.8-18.3,29.1-31.2,32.3
		c14.4-138,83.3-318,115.5-460.7c12-53.1,18.1-77.9,7.8-130.3c-1.8-9.2-7.3-22.5-15.1-27.6c1.7,9.2,7.4,14.9,8.8,33.5
		c2.2,29.8-9.7,83.2-17.2,111.7c-24,90.2-56.6,177.8-80.6,266.4c-12.4,45.8-25.4,89.2-37.2,136.7c-6.4,25.8-11.7,50.3-10.3,79.8
		c1.4,29,15.5,51.7,41.3,28.3c22.5-20.4,52.6-75.4,70.3-103.4c22.5-35.5,39.8-73.8,60.6-113c6.6-12.4,49.2-109.5,57.7-117
		C891.6,394.6,825.8,663.7,838.5,685.6L838.5,685.6z"/>
<path d="M366.7,779.7c-29.7-8.2-65.6-41.3-86.6-61.3c-52.9-51.3-96-101.8-146.5-152.5c-15-15-25-24.9-31.1-32.8
		c-11.6-15-9.4-22.8-0.4-44.2c25-59.8,55.6-103.9,89.9-163.6c34.3-59.7,85.7-111.7,133.2-165.8c27.9-31.8,76.3-71.8,110.7-98.3
		c-17.1,0.1-49.8,22-63.2,31.9c-78,57.6-139.9,141.3-184.8,196.7S82.1,467.5,79.5,469.1c0.1-25.5,42.8-217.3,46.5-274.7
		c0.5-7.2,1.5-16.2,1.7-23.1c0.3-8.7,0.2-12.2-4.1-17c-11,4.8-12.7,21-16.4,32c-13,38.6-19.4,72.3-28.9,113.6
		c-2.9,15.1-29.6,162.8-31,163.8c-3.5,2.4-32.4-26.6-34-28.1c-6.1-5.3-15.7-12.6-10.2,2C9.8,455.2,36.3,488.6,38,502
		C33.4,533.5-2.5,742.5,0.1,782.2c0.7,10.2,3.7,3.1,6.1-1.8C15.8,761.1,33,658.7,59,589.8c3.3-8.8,7.2-16.9,10.4-24.6
		c6.8-16.5,19.7-3.6,27.7,6c46,55,81.4,97.3,136.8,147.9c29.8,27.5,102.4,85.7,143.4,70.5C391,784.5,372.1,781.2,366.7,779.7
		L366.7,779.7z"/>
<path d="M689.1,321.3c1.4-7,9.3-21.9,8.1-36c-1.3-15.2-31.5-41.4-31.3-43.8c1.1-11,10.4-27.3,0.2-40.2
		c-11.2-14-28.3-3.8-30.2,13.2c-2.3,20,12.6,21,2.8,50.4c-10.5,31.6-28.3,51.4-46.7,72.9c-17.2,20.1-14.6,26-27.7,31.9
		c5.3-28.4,31.3-75.6,33.6-99.4c2.3-24.1-16.1,0-20.7,7.1c-5.4,8.4-7.1,12.1-13.2,21.1c-9.4,14-19.4,28.4-28.6,42.5
		c-8.4,12.8-43.9,75.3-58.8,80.9c-1.7-34.2,21.4-88.6,37.3-113.7c46.4-73.6,49.2-62.6,75.5-71.2c-24-17-61.1,16.7-72.5,28.5
		c-63.3,64.9-68.8,135.6-76.6,151.3c-3.8,2.2-56.1,42.2-68,44.9c3-14.1,33.2-68.5,42.6-87.3c15-30.2,50.3-71.4,39.1-83.2
		c-22.4-15.8-95.8,60.3-112.1,78.6c17.3-6.3,59-35.6,74-37c-1.3,8.2-43.1,66.5-51,79.9c-17.5,29.3-31.4,52.8-47.7,86.2
		c-20.5,42.2,7.6,35.7,11,33.9c11.2-5.8,95.2-89.6,109-97.5c-0.4,8.1-1.8,24.5,8.4,32c5.7,4.2,19,1.2,29.6-15.3
		c21.2-27.2,37.6-58.9,51.2-79.3c-1.3,15.3-6.2,30.5-5.2,47.1c0.8,12.9,10.6,25.7,23.4,16.5c2.7-1.9,15.7-23.7,18-27.8
		c24.1-43.2,48-65.3,75.5-109.5c10.9-17.5,12.1-25.4,16.4-29.2c0.7-0.6,3.5,3.8,4.5,3.5c13.7,22.4-15.2,72.1-18.7,109.2
		c-4.5,48.2,21.4,35.1,41.3-0.1c18.8-33.2,56.2-89.8,67.2-118.8c-13.9,7.2-39.1,48.4-53.5,65.2C687.2,338.1,687.6,328.9,689.1,321.3
		L689.1,321.3z"/>
<path d="M248.9,507.3c-1.3-22,21.2-81.3,26.3-114.2c4.4-28.3-3.9-20.8-15-2.1c-14.5,24.5-31.1,66.7-36.9,82.3
		c-11.4,30.7-36.3,109.3-15.9,112.8c25.8,2,96.2-131.5,101.6-147.7C291.1,447.9,263.1,499.9,248.9,507.3L248.9,507.3z"/>
<path d="M301.7,302.3c10.8-10.3,13.2-27,2.3-32c-9.3-4.2-23,1.4-29.4,12.3C262.2,304,280.7,322.3,301.7,302.3
		L301.7,302.3z"/>
</g>
</svg>