<svg xmlns="http://www.w3.org/2000/svg" viewBox="0 0 96.9 67.5" width="96.9" height="67.5" fill="#ffffff"><g><path d="M95.2,10.9c-1.2-5.2-5.4-9-10.5-9.5C72.7,0,60.6,0,48.5,0C36.3,0,24.2,0,12.2,1.3C7.1,1.9,2.9,5.7,1.7,10.9C0,18.2,0,26.2,0,33.8s0,15.6,1.7,22.9c1.2,5.2,5.4,9,10.5,9.5c12,1.3,24.2,1.3,36.3,1.3c12.1,0,24.3,0,36.3-1.3c5.1-0.6,9.3-4.4,10.5-9.5c1.7-7.3,1.7-15.3,1.7-22.9C96.9,26.2,96.9,18.2,95.2,10.9z M35.9,48.8c0-10.7,0-21.3,0-32c10.3,5.4,20.5,10.7,30.8,16.1C56.4,38.2,46.2,43.5,35.9,48.8z"/></g></svg>