<svg xmlns="http://www.w3.org/2000/svg" viewBox="0 0 512 512" width="512" height="512">
<path style="fill:#006AB8;" d="M512,256c0,131.521-99.182,239.877-226.826,254.349C275.602,511.446,265.864,512,256,512
	C119.536,512,8.014,405.232,0.418,270.67C0.136,265.812,0,260.921,0,256C0,114.615,114.615,0,256,0S512,114.615,512,256z"/>
<g>
	
		<rect x="163.453" y="149.718" transform="matrix(-0.6584 -0.7527 0.7527 -0.6584 190.7443 457.4792)" style="fill:#F0EFEB;" width="71.472" height="71.472"/>
	
		<rect x="203.38" y="242.466" transform="matrix(-0.6584 -0.7527 0.7527 -0.6584 187.1489 641.3431)" style="fill:#F0EFEB;" width="71.472" height="71.472"/>
	
		<rect x="242.772" y="335.827" transform="matrix(-0.6584 -0.7527 0.7527 -0.6584 182.2053 825.8216)" style="fill:#F0EFEB;" width="71.472" height="71.472"/>
	
		<rect x="369.966" y="381.582" transform="matrix(-0.6584 -0.7527 0.7527 -0.6584 350.5734 975.7991)" style="fill:#F0EFEB;" width="53.521" height="53.521"/>
	
		<rect x="334.093" y="300.218" transform="matrix(-0.6584 -0.7527 0.7527 -0.6584 352.3224 813.8643)" style="fill:#F0EFEB;" width="53.521" height="53.521"/>
	
		<rect x="298.229" y="213.434" transform="matrix(-0.6584 -0.7527 0.7527 -0.6584 358.1681 642.9488)" style="fill:#F0EFEB;" width="53.521" height="53.521"/>
	
		<rect x="261.462" y="132.159" transform="matrix(-0.6584 -0.7527 0.7527 -0.6584 358.3678 480.4895)" style="fill:#F0EFEB;" width="53.521" height="53.521"/>
	<path style="fill:#F0EFEB;" d="M371.357,467.163c-24.963,20.062-54.22,34.994-86.183,43.186C275.602,511.446,265.864,512,256,512
		C119.536,512,8.014,405.232,0.418,270.67c9.289-117.708,107.76-210.328,227.85-210.328c42.057,0,81.439,11.368,115.294,31.18
		l-20.898,18.286l-29.675-33.959l-55.745,48.744L208.468,91.7l-102.379,88.66l61.639,70.489l-22.215,19.446l61.639,70.478
		l-23.291,20.376l89.516,102.358l53.687-46.968L371.357,467.163z"/>
	
		<rect x="347.18" y="120.636" transform="matrix(-0.6584 -0.7527 0.7527 -0.6584 500.8386 503.6555)" style="fill:#F0EFEB;" width="35.071" height="35.071"/>
	
		<rect x="382.744" y="202.139" transform="matrix(-0.6584 -0.7527 0.7527 -0.6584 498.4717 665.5875)" style="fill:#F0EFEB;" width="35.071" height="35.071"/>
	
		<rect x="417.466" y="283.636" transform="matrix(-0.6584 -0.7527 0.7527 -0.6584 494.7133 826.8752)" style="fill:#F0EFEB;" width="35.071" height="35.071"/>
</g>
<g>
</g>
<g>
</g>
<g>
</g>
<g>
</g>
<g>
</g>
<g>
</g>
<g>
</g>
<g>
</g>
<g>
</g>
<g>
</g>
<g>
</g>
<g>
</g>
<g>
</g>
<g>
</g>
<g>
</g>
</svg>