<svg xmlns="http://www.w3.org/2000/svg" viewBox="0 0 242.667 242.667" width="242.667" height="242.667" fill="#1e1f29">
<path class="st0" d="M160.7,112.7h12.7v54.7c0,3.3-2.7,6-6,6H75.3c-3.3,0-6-2.7-6-6v-54.7h12.7c-0.6,2.8-0.9,5.7-0.9,8.6
	c0,22.3,18.1,40.3,40.3,40.3s40.3-18.1,40.3-40.3C161.7,118.4,161.3,115.5,160.7,112.7z M121.3,148.5c15,0,27.2-12.2,27.2-27.2
	s-12.2-27.2-27.2-27.2s-27.2,12.2-27.2,27.2C94.2,136.3,106.3,148.5,121.3,148.5z M153.9,93.4h10.3c3,0,5.5-2.5,5.5-5.5V77.6
	c0-3-2.5-5.5-5.5-5.5h-10.3c-3,0-5.5,2.5-5.5,5.5V88C148.4,91,150.8,93.4,153.9,93.4z M222.7,20v202.7H20V20H222.7z M185.9,73.1
	c0-9-7.3-16.3-16.3-16.3H73.1c-9,0-16.3,7.3-16.3,16.3v96.5c0,9,7.3,16.3,16.3,16.3h96.5c9,0,16.3-7.3,16.3-16.3V73.1z"/>
<path class="st0" d="M205,0H34H0v35v162v45.7h34h171h37.7V197V35V0H205z M205,197H34V35h171V197z"/>
</svg>