<?xml version="1.0" encoding="utf-8"?>
<!-- Generator: Adobe Illustrator 21.1.0, SVG Export Plug-In . SVG Version: 6.00 Build 0)  -->
<svg version="1.1" id="Capa_1" xmlns="http://www.w3.org/2000/svg" xmlns:xlink="http://www.w3.org/1999/xlink" x="0px" y="0px"
	 viewBox="0 0 400 400" width="400" height="400" style="enable-background:new 0 0 400 400;" xml:space="preserve">
<style type="text/css">
	.st0{fill:#ffffff;}
</style>
<path class="st0" d="M12.5,87.5h375c6.9,0,12.5-5.6,12.5-12.5c0-6.9-5.6-12.5-12.5-12.5h-375C5.6,62.5,0,68.1,0,75
	C0,81.9,5.6,87.5,12.5,87.5z"/>
<path class="st0" d="M387.5,187.5h-375C5.6,187.5,0,193.1,0,200c0,6.9,5.6,12.5,12.5,12.5h375c6.9,0,12.5-5.6,12.5-12.5
	C400,193.1,394.4,187.5,387.5,187.5z"/>
<path class="st0" d="M262.5,312.5h-250C5.6,312.5,0,318.1,0,325c0,6.9,5.6,12.5,12.5,12.5h250c6.9,0,12.5-5.6,12.5-12.5
	C275,318.1,269.4,312.5,262.5,312.5z"/>
</svg>
